<?xml version="1.0" encoding="iso-8859-1"?>
<!-- Generator: Adobe Illustrator 19.0.0, SVG Export Plug-In . SVG Version: 6.00 Build 0)  -->
<svg version="1.1" id="Layer_1" xmlns="http://www.w3.org/2000/svg" xmlns:xlink="http://www.w3.org/1999/xlink" x="0px" y="0px"
	 viewBox="0 0 512.002 512.002" style="enable-background:new 0 0 512.002 512.002;" xml:space="preserve">
<path style="fill:#FFBE75;" d="M442.791,197.635H69.224c0.219-0.605,7.507-19.61,33.992-38.628
	c26.898-19.314,73.598-38.628,152.785-38.628C413.151,120.379,442.353,196.437,442.791,197.635z"/>
<path style="fill:#FF9E60;" d="M442.791,273.924v130.317c0,28.108-22.79,50.911-50.911,50.911H120.122
	c-28.121,0-50.911-22.803-50.911-50.911V273.924v-76.29c0,0,0,0,0.013,0h373.568V273.924z"/>
<path d="M120.122,468.028H391.88c35.172,0,63.787-28.615,63.787-63.787V279.259l48.416-48.403
	c7.747-7.749,10.044-19.298,5.85-29.425c-4.195-10.128-13.987-16.673-24.947-16.673h-34.291
	c-12.305-21.021-55.635-73.699-181.818-77.075V69.726h23.614c7.111,0,12.876-5.765,12.876-12.876s-5.765-12.876-12.876-12.876
	h-72.968c-7.111,0-12.876,5.765-12.876,12.876s5.765,12.876,12.876,12.876h23.601v37.946c-62.35,1.643-111.902,15.373-147.42,40.876
	c-19.004,13.646-29.287,27.596-34.355,36.211H27.017c-10.959,0-20.751,6.545-24.947,16.673c-4.195,10.127-1.898,21.677,5.851,29.425
	l48.415,48.402v124.982C56.335,439.413,84.949,468.028,120.122,468.028z M429.914,404.24c0,20.974-17.062,38.035-38.035,38.035
	H120.122c-20.974,0-38.035-17.062-38.035-38.035V273.923v-63.414h347.829v63.414V404.24H429.914z M486.139,211.286
	c0.321,0.773-0.033,1.127-0.267,1.36l-30.207,30.199v-32.334h29.318C485.316,210.511,485.819,210.511,486.139,211.286z
	 M110.725,169.466c23.005-16.52,66.885-36.211,145.276-36.211c76.703,0,120.228,18.908,143.234,34.77
	c8.389,5.784,14.715,11.59,19.416,16.733H93.356C97.666,180.041,103.338,174.77,110.725,169.466z M25.862,211.286
	c0.322-0.776,0.823-0.776,1.155-0.776h29.318v32.334l-30.206-30.198C25.895,212.412,25.541,212.058,25.862,211.286z"/>
<path d="M270.486,234.975h-68.139c-7.111,0-12.876,5.765-12.876,12.876c0,7.111,5.765,12.876,12.876,12.876h68.139
	c7.111,0,12.876-5.765,12.876-12.876C283.362,240.739,277.598,234.975,270.486,234.975z"/>
<path d="M309.655,234.975h-3.408c-7.111,0-12.876,5.765-12.876,12.876c0,7.111,5.765,12.876,12.876,12.876h3.408
	c7.111,0,12.876-5.765,12.876-12.876C322.531,240.739,316.765,234.975,309.655,234.975z"/>
<g>
</g>
<g>
</g>
<g>
</g>
<g>
</g>
<g>
</g>
<g>
</g>
<g>
</g>
<g>
</g>
<g>
</g>
<g>
</g>
<g>
</g>
<g>
</g>
<g>
</g>
<g>
</g>
<g>
</g>
</svg>
