<?xml version="1.0" encoding="iso-8859-1"?>
<!-- Generator: Adobe Illustrator 19.0.0, SVG Export Plug-In . SVG Version: 6.00 Build 0)  -->
<svg version="1.1" id="Capa_1" xmlns="http://www.w3.org/2000/svg" xmlns:xlink="http://www.w3.org/1999/xlink" x="0px" y="0px"
	 viewBox="0 0 470 470" style="enable-background:new 0 0 470 470;" xml:space="preserve">
<g>
	<path style="fill:#DDCAF3;" d="M86.694,209.954c5.336,63.241,45.101,111.913,68.329,135.296
		c33.771,33.997,68.146,52.104,79.977,52.104c12.457,0,49.638-20.126,84.282-56.516c24.145-25.362,64.65-77.958,64.65-145.253
		c0-48.651-39.581-88.231-88.231-88.231c-20.354,0-40.221,7.113-55.939,20.03c-2.768,2.274-6.756,2.274-9.523,0
		c-15.718-12.917-35.584-20.03-55.939-20.03c-43.713,0-80.365,31.289-87.149,74.397c-0.629,3.995-4.305,6.747-8.285,6.274
		c-0.195,2.495-0.296,5.016-0.296,7.56c0,2.524,0.073,5.027,0.179,7.521C82.815,202.841,86.349,205.88,86.694,209.954z
		 M326.001,191.5c4.411,0,8,3.589,8,8s-3.589,8-8,8s-8-3.589-8-8S321.59,191.5,326.001,191.5z M296.001,151.5c4.411,0,8,3.589,8,8
		s-3.589,8-8,8s-8-3.589-8-8S291.59,151.5,296.001,151.5z M176.001,291.5c4.411,0,8,3.589,8,8s-3.589,8-8,8s-8-3.589-8-8
		S171.59,291.5,176.001,291.5z"/>
	<path style="fill:#DDCAF3;" d="M235,15C113.691,15,15,113.691,15,235s98.691,220,220,220s220-98.691,220-220S356.309,15,235,15z
		 M387.997,326.321c-2.255,3.475-6.9,4.463-10.374,2.209c-0.03-0.02-0.057-0.042-0.086-0.062c-2.815,4.1-5.748,8.158-8.811,12.167
		c0.022,0.017,0.046,0.031,0.068,0.049c3.229,2.595,3.741,7.316,1.146,10.544c-5.701,7.091-11.779,14.035-18.064,20.637
		C318.473,406.951,269.38,442.354,235,442.354s-83.473-35.402-116.875-70.488c-22.298-23.422-40.19-48.901-53.179-75.728
		c-15.845-32.725-23.879-66.556-23.879-100.553c0-73.464,59.767-133.231,133.231-133.231c21.032,0,41.931,5.058,60.701,14.658
		c18.771-9.601,39.669-14.658,60.701-14.658c73.464,0,133.231,59.767,133.231,133.231c0,33.997-8.034,67.828-23.879,100.553
		C400.119,306.33,394.38,316.485,387.997,326.321z"/>
	<path style="fill:#3D2A20;" d="M401.17,68.83C356.784,24.444,297.771,0,235,0C172.229,0,113.215,24.444,68.83,68.83
		C24.444,113.215,0,172.229,0,235s24.444,121.785,68.83,166.17C113.215,445.556,172.229,470,235,470
		c62.771,0,121.784-24.444,166.17-68.83C445.556,356.785,470,297.771,470,235S445.556,113.215,401.17,68.83z M235,455
		c-121.309,0-220-98.691-220-220S113.691,15,235,15s220,98.691,220,220S356.309,455,235,455z"/>
	<path style="fill:#AB7BE1;" d="M375.414,318.156c6.045-9.315,11.474-18.922,16.138-28.555c14.85-30.671,22.38-62.303,22.38-94.017
		c0-65.193-53.039-118.231-118.231-118.231c-19.87,0-39.608,5.089-57.081,14.718c-2.253,1.241-4.986,1.241-7.239,0
		c-17.473-9.629-37.211-14.718-57.082-14.718c-65.193,0-118.231,53.038-118.231,118.231c0,31.714,7.53,63.346,22.38,94.016
		c12.311,25.428,29.315,49.625,50.542,71.922c31.144,32.714,77.558,65.831,106.01,65.831s74.867-33.117,106.01-65.831
		c5.999-6.301,11.798-12.926,17.238-19.693c2.577-3.206,7.25-3.731,10.477-1.195c3.064-4.008,5.996-8.067,8.811-12.167
		C374.135,326.192,373.179,321.601,375.414,318.156z M330.146,351.18c-36.454,38.292-77.003,61.174-95.146,61.174
		c-19.647,0-58.605-24.304-90.619-56.532c-19.391-19.521-35.367-40.765-47.484-63.142c-14.366-26.531-22.828-53.939-25.15-81.464
		c-0.348-4.128,2.716-7.756,6.843-8.104c0.053-0.005,0.104-0.002,0.157-0.005c-0.106-2.494-0.179-4.997-0.179-7.521
		c0-2.545,0.102-5.066,0.296-7.56c-0.097-0.011-0.193-0.016-0.29-0.031c-4.092-0.644-6.887-4.483-6.243-8.575
		c3.782-24.032,16.062-46.062,34.576-62.033c18.713-16.142,42.646-25.032,67.391-25.032c21.807,0,43.137,6.979,60.701,19.757
		c17.564-12.779,38.894-19.757,60.701-19.757c56.922,0,103.231,46.309,103.231,103.231c0,29.431-7.025,58.863-20.88,87.48
		C366.418,307.092,350.301,330.009,330.146,351.18z"/>
	<path style="fill:#3D2A20;" d="M176.001,307.5c4.411,0,8-3.589,8-8s-3.589-8-8-8s-8,3.589-8,8S171.59,307.5,176.001,307.5z"/>
	<path style="fill:#3D2A20;" d="M326.001,207.5c4.411,0,8-3.589,8-8s-3.589-8-8-8s-8,3.589-8,8S321.59,207.5,326.001,207.5z"/>
	<path style="fill:#3D2A20;" d="M296.001,167.5c4.411,0,8-3.589,8-8s-3.589-8-8-8s-8,3.589-8,8S291.59,167.5,296.001,167.5z"/>
	<path style="fill:#3D2A20;" d="M398.932,195.584c0-56.922-46.31-103.231-103.231-103.231c-21.807,0-43.137,6.979-60.701,19.757
		c-17.564-12.779-38.894-19.757-60.701-19.757c-24.744,0-48.677,8.89-67.391,25.032c-18.515,15.971-30.794,38.001-34.576,62.033
		c-0.644,4.092,2.151,7.931,6.243,8.575c0.097,0.015,0.193,0.019,0.29,0.031c3.981,0.473,7.656-2.279,8.285-6.274
		c6.785-43.108,43.436-74.397,87.149-74.397c20.355,0,40.221,7.113,55.939,20.03c2.768,2.274,6.756,2.274,9.523,0
		c15.718-12.917,35.584-20.03,55.939-20.03c48.651,0,88.231,39.58,88.231,88.231c0,67.295-40.505,119.891-64.65,145.253
		c-34.644,36.39-71.825,56.516-84.282,56.516c-11.831,0-46.207-18.107-79.977-52.104c-23.229-23.383-62.993-72.055-68.329-135.296
		c-0.345-4.074-3.879-7.113-7.947-6.849c-0.053,0.003-0.104,0.001-0.157,0.005c-4.127,0.349-7.191,3.977-6.843,8.104
		c2.323,27.524,10.785,54.933,25.15,81.464c12.117,22.377,28.093,43.622,47.484,63.142c32.014,32.229,70.972,56.532,90.619,56.532
		c18.143,0,58.692-22.882,95.146-61.174c20.155-21.171,36.272-44.088,47.906-68.115
		C391.907,254.448,398.932,225.015,398.932,195.584z"/>
	<path style="fill:#3D2A20;" d="M295.701,62.354c-21.032,0-41.93,5.058-60.701,14.658c-18.771-9.601-39.669-14.658-60.701-14.658
		c-73.464,0-133.231,59.767-133.231,133.231c0,33.997,8.034,67.828,23.879,100.553c12.988,26.827,30.88,52.306,53.179,75.728
		c33.402,35.086,82.494,70.488,116.875,70.488s83.473-35.402,116.875-70.488c6.286-6.603,12.363-13.546,18.064-20.637
		c2.595-3.228,2.083-7.949-1.146-10.544c-0.022-0.018-0.045-0.032-0.068-0.049c-3.227-2.536-7.9-2.011-10.477,1.195
		c-5.44,6.767-11.24,13.392-17.238,19.693c-31.144,32.714-77.558,65.831-106.01,65.831s-74.867-33.117-106.01-65.831
		c-21.227-22.296-38.231-46.494-50.542-71.922c-14.85-30.67-22.38-62.302-22.38-94.016c0-65.193,53.038-118.231,118.231-118.231
		c19.87,0,39.608,5.089,57.082,14.718c2.253,1.241,4.986,1.241,7.239,0c17.473-9.629,37.211-14.718,57.081-14.718
		c65.193,0,118.231,53.038,118.231,118.231c0,31.714-7.53,63.346-22.38,94.017c-4.664,9.633-10.093,19.24-16.138,28.555
		c-2.235,3.445-1.279,8.036,2.123,10.312c0.03,0.02,0.056,0.043,0.086,0.062c3.474,2.254,8.119,1.266,10.374-2.209
		c6.383-9.836,12.122-19.991,17.056-30.184c15.845-32.726,23.879-66.557,23.879-100.553
		C428.932,122.121,369.165,62.354,295.701,62.354z"/>
</g>
<g>
</g>
<g>
</g>
<g>
</g>
<g>
</g>
<g>
</g>
<g>
</g>
<g>
</g>
<g>
</g>
<g>
</g>
<g>
</g>
<g>
</g>
<g>
</g>
<g>
</g>
<g>
</g>
<g>
</g>
</svg>
