<?xml version="1.0" encoding="iso-8859-1"?>
<!-- Generator: Adobe Illustrator 19.0.0, SVG Export Plug-In . SVG Version: 6.00 Build 0)  -->
<svg version="1.1" id="Layer_1" xmlns="http://www.w3.org/2000/svg" xmlns:xlink="http://www.w3.org/1999/xlink" x="0px" y="0px"
	 viewBox="0 0 512 512" style="enable-background:new 0 0 512 512;" xml:space="preserve">
<path style="fill:#FFBE75;" d="M312.998,298.206c4.728-13.181,7.309-27.39,7.309-42.206c0-69.023-55.947-124.97-124.97-124.97
	S70.354,186.977,70.354,256s55.959,124.97,124.982,124.97C249.544,380.97,295.695,346.459,312.998,298.206z M405.313,202.89
	c4.623,2.148,9.784,3.339,15.224,3.339c20.011,0,36.24-16.217,36.24-36.24c0-20.011-16.228-36.228-36.24-36.228
	s-36.24,16.217-36.24,36.228C384.298,184.572,392.902,197.134,405.313,202.89z M500.325,115.443v281.113
	c0,17.186-13.928,31.114-31.114,31.114H42.789c-17.186,0-31.114-13.928-31.114-31.114V115.443c0-17.186,13.928-31.114,31.114-31.114
	h426.421C486.396,84.329,500.325,98.258,500.325,115.443z"/>
<path style="fill:#9DA6BA;" d="M405.313,202.89c-12.411-5.756-21.015-18.318-21.015-32.9c0-20.011,16.228-36.228,36.24-36.228
	s36.24,16.217,36.24,36.228c0,20.023-16.228,36.24-36.24,36.24C415.097,206.229,409.936,205.038,405.313,202.89z"/>
<path style="fill:#5A5D6F;" d="M312.998,298.206c-17.303,48.253-63.454,82.765-117.662,82.765
	c-69.023,0-124.982-55.947-124.982-124.97s55.959-124.97,124.982-124.97s124.97,55.947,124.97,124.97
	C320.306,270.816,317.726,285.024,312.998,298.206z M229.498,256c0-18.867-15.294-34.161-34.161-34.161S161.175,237.133,161.175,256
	c0,18.867,15.294,34.161,34.161,34.161S229.498,274.867,229.498,256z"/>
<circle style="fill:#9DA6BA;" cx="195.336" cy="256" r="34.161"/>
<path d="M422.872,72.654h-4.909c-6.447,0-11.675,5.228-11.675,11.675c0,6.447,5.228,11.675,11.675,11.675h4.909
	c6.447,0,11.675-5.228,11.675-11.675C434.547,77.882,429.32,72.654,422.872,72.654z"/>
<path d="M0,115.443v281.113c0,23.594,19.195,42.789,42.789,42.789h426.422c23.594,0,42.789-19.195,42.789-42.789V115.443
	c0-23.594-19.195-42.789-42.789-42.789h-12.136c-6.447,0-11.675,5.228-11.675,11.675c0,6.447,5.228,11.675,11.675,11.675h12.136
	c10.719,0,19.439,8.721,19.439,19.439v281.113c0,10.719-8.721,19.439-19.439,19.439H42.789c-10.719,0-19.439-8.721-19.439-19.439
	V115.443c0-10.719,8.721-19.439,19.439-19.439h340.44c6.447,0,11.675-5.228,11.675-11.675c0-6.447-5.228-11.675-11.675-11.675
	H42.789C19.195,72.654,0,91.849,0,115.443z"/>
<path d="M229.498,244.325c-6.447,0-11.675,5.228-11.675,11.675c0,12.399-10.087,22.486-22.486,22.486S172.849,268.399,172.849,256
	c0-12.399,10.088-22.486,22.487-22.486c6.447,0,11.675-5.228,11.675-11.675s-5.228-11.675-11.675-11.675
	c-25.274,0-45.838,20.562-45.838,45.836c0,25.274,20.562,45.836,45.838,45.836c25.273,0,45.836-20.562,45.836-45.836
	C241.173,249.553,235.946,244.325,229.498,244.325z"/>
<path d="M274.353,267.675c6.447,0,11.675-5.228,11.675-11.675c0-50.008-40.684-90.692-90.692-90.692
	c-6.447,0-11.675,5.228-11.675,11.675c0,6.447,5.228,11.675,11.675,11.675c37.133,0,67.342,30.209,67.342,67.342
	C262.678,262.447,267.906,267.675,274.353,267.675z"/>
<path d="M195.337,323.342c-37.134,0-67.343-30.209-67.343-67.342c0-6.447-5.228-11.675-11.675-11.675
	c-6.447,0-11.675,5.228-11.675,11.675c0,50.008,40.685,90.692,90.693,90.692c6.447,0,11.675-5.228,11.675-11.675
	S201.784,323.342,195.337,323.342z"/>
<path d="M420.537,122.087c-26.421,0-47.915,21.489-47.915,47.903c0,14.61,6.751,28.257,17.817,37.239l-30.665,66.262l-30.228,8.155
	c1.599-8.412,2.434-16.98,2.434-25.646c0-75.346-61.299-136.645-136.645-136.645c-75.353,0-136.658,61.299-136.658,136.645
	s61.305,136.645,136.658,136.645c55.463,0,105.487-33.796,126.41-84.71l49.376-13.321c3.336-0.9,6.103-3.233,7.554-6.368
	l32.94-71.182c2.915,0.548,5.891,0.839,8.92,0.839c26.421,0,47.915-21.494,47.915-47.915
	C468.452,143.576,446.958,122.087,420.537,122.087z M195.337,369.295c-62.478,0-113.308-50.824-113.308-113.295
	s50.83-113.295,113.308-113.295c62.471,0,113.295,50.824,113.295,113.295c0,11.121-1.616,22.048-4.772,32.576l-47.959,12.938
	c-6.225,1.679-9.91,8.089-8.232,14.314c1.405,5.207,6.118,8.637,11.265,8.637c1.005,0,2.029-0.132,3.047-0.406l29.37-7.924
	C270.927,348.658,234.797,369.295,195.337,369.295z M422.07,194.477l9.062-19.584c2.707-5.852,0.16-12.79-5.693-15.498
	c-5.853-2.713-12.791-0.159-15.498,5.693l-9.07,19.599c-3.113-4.175-4.899-9.311-4.899-14.697c0-13.538,11.019-24.553,24.564-24.553
	c13.545,0,24.564,11.015,24.564,24.553C445.102,183.018,434.9,193.678,422.07,194.477z"/>
<path d="M442.3,398.051c6.447,0,11.675-5.228,11.675-11.675v-5.581h4.543c6.447,0,11.675-5.228,11.675-11.675
	c0-6.447-5.228-11.675-11.675-11.675h-4.543v-25.557c0-6.447-5.228-11.675-11.675-11.675c-6.447,0-11.675,5.228-11.675,11.675
	v25.557h-4.542c-6.447,0-11.675,5.228-11.675,11.675c0,6.447,5.228,11.675,11.675,11.675h4.542v5.581
	C430.625,392.823,435.851,398.051,442.3,398.051z"/>
<path d="M368.082,398.051c6.447,0,11.675-5.228,11.675-11.675v-25.557h4.542c6.447,0,11.675-5.228,11.675-11.675
	s-5.228-11.675-11.675-11.675h-4.542v-5.581c0-6.447-5.228-11.675-11.675-11.675c-6.447,0-11.675,5.228-11.675,11.675v5.581h-4.543
	c-6.447,0-11.675,5.228-11.675,11.675s5.228,11.675,11.675,11.675h4.543v25.557C356.407,392.823,361.634,398.051,368.082,398.051z"
	/>
<path d="M68.032,124.632c0-6.447-5.228-11.675-11.675-11.675s-11.675,5.228-11.675,11.675v11.115
	c0,6.447,5.228,11.675,11.675,11.675s11.675-5.228,11.675-11.675V124.632z"/>
<g>
</g>
<g>
</g>
<g>
</g>
<g>
</g>
<g>
</g>
<g>
</g>
<g>
</g>
<g>
</g>
<g>
</g>
<g>
</g>
<g>
</g>
<g>
</g>
<g>
</g>
<g>
</g>
<g>
</g>
</svg>
