<?xml version="1.0" encoding="iso-8859-1"?>
<!-- Generator: Adobe Illustrator 19.0.0, SVG Export Plug-In . SVG Version: 6.00 Build 0)  -->
<svg version="1.1" id="Layer_1" xmlns="http://www.w3.org/2000/svg" xmlns:xlink="http://www.w3.org/1999/xlink" x="0px" y="0px"
	 viewBox="0 0 512 512" style="enable-background:new 0 0 512 512;" xml:space="preserve">
<path style="fill:#FFBE75;" d="M121.343,105.906c-32.449,3.627-57.671,31.159-57.671,64.563v83.059v90.146
	c0,12.482,10.119,22.601,22.601,22.601h339.453c12.482,0,22.601-10.119,22.601-22.601v-90.146v-83.059
	c0-33.108-24.769-60.446-56.793-64.473c-2.685-0.336-5.408-0.503-8.183-0.503h-45.86h-54.031h-54.044h-54.044h-46.712
	C126.183,105.493,123.744,105.635,121.343,105.906z M499.093,144.46v225.235c0,27.557-22.343,49.9-49.9,49.9h-0.865H63.672h-0.852
	c-27.57,0-49.913-22.343-49.913-49.9V144.46c0-50.972,41.317-92.288,92.288-92.288h301.608
	C457.776,52.172,499.093,93.489,499.093,144.46z"/>
<path style="fill:#F1DCBD;" d="M448.327,253.528v90.146c0,12.482-10.119,22.601-22.601,22.601H86.273
	c-12.482,0-22.601-10.119-22.601-22.601v-90.146h57.671h54.031h54.044h54.044h54.031h54.044L448.327,253.528L448.327,253.528z
	 M417.195,310.592c0-14.172-11.488-25.66-25.66-25.66s-25.66,11.488-25.66,25.66s11.488,25.66,25.66,25.66
	S417.195,324.764,417.195,310.592z M147.003,310.592c0-14.172-11.488-25.66-25.66-25.66c-14.172,0-25.673,11.488-25.673,25.66
	s11.501,25.66,25.673,25.66S147.003,324.764,147.003,310.592z"/>
<path style="fill:#9DA6BA;" d="M448.327,170.469v83.059h-56.793V105.996C423.558,110.023,448.327,137.361,448.327,170.469z"/>
<circle style="fill:#5A5D6F;" cx="391.535" cy="310.592" r="25.66"/>
<g>
	<path style="fill:#9DA6BA;" d="M391.535,105.996v147.532h-54.044V105.493h45.86C386.126,105.493,388.85,105.66,391.535,105.996z"/>
	<rect x="283.461" y="105.493" style="fill:#9DA6BA;" width="54.031" height="148.036"/>
	<rect x="229.417" y="105.493" style="fill:#9DA6BA;" width="54.044" height="148.036"/>
	<rect x="175.374" y="105.493" style="fill:#9DA6BA;" width="54.044" height="148.036"/>
	<path style="fill:#9DA6BA;" d="M175.374,105.493v148.036h-54.031V105.906c2.401-0.271,4.84-0.413,7.319-0.413H175.374z"/>
</g>
<path style="fill:#5A5D6F;" d="M121.343,284.932c14.172,0,25.66,11.488,25.66,25.66s-11.488,25.66-25.66,25.66
	c-14.172,0-25.673-11.488-25.673-25.66S107.171,284.932,121.343,284.932z"/>
<path style="fill:#9DA6BA;" d="M121.343,105.906v147.623H63.672v-83.059C63.672,137.064,88.894,109.533,121.343,105.906z"/>
<path d="M406.804,39.265H105.196C47.191,39.265,0,86.454,0,144.46v225.235c0,30.509,21.876,55.996,50.765,61.634v28.498
	c0,7.128,5.779,12.907,12.907,12.907s12.907-5.78,12.907-12.907v-27.325h358.84v27.325c0,7.128,5.779,12.907,12.907,12.907
	c7.129,0,12.907-5.78,12.907-12.907v-28.496C490.124,425.698,512,400.209,512,369.695V144.46
	C512,86.454,464.809,39.265,406.804,39.265z M486.185,369.695c0,20.399-16.595,36.993-36.993,36.993h-0.865H63.672h-0.852
	c-20.405,0-37.006-16.594-37.006-36.993V144.46c0-43.77,35.61-79.381,79.381-79.381h301.608c43.77,0,79.381,35.61,79.381,79.381
	L486.185,369.695L486.185,369.695z"/>
<path d="M396.885,93.756c-1.632-0.746-3.44-1.172-5.35-1.172c-0.802,0-1.581,0.083-2.343,0.222
	c-1.937-0.142-3.889-0.222-5.841-0.222h-254.69c-1.719,0-3.451,0.076-5.181,0.191c-0.697-0.116-1.408-0.191-2.137-0.191
	c-1.726,0-3.369,0.345-4.874,0.959c-37.695,5.904-65.704,38.378-65.704,76.926v173.205c0,19.579,15.929,35.508,35.508,35.508
	h339.453c19.579,0,35.508-15.929,35.508-35.508V170.469C461.235,132.566,433.831,100.238,396.885,93.756z M435.42,170.469v70.152
	h-30.978V122.849C422.82,131.007,435.42,149.45,435.42,170.469z M350.399,240.621V118.4h28.229v122.221H350.399z M296.368,240.621
	V118.4h28.216v122.221H296.368z M242.325,240.621V118.4h28.229v122.221H242.325z M188.281,240.621V118.4h28.229v122.221H188.281z
	 M134.25,240.621V118.4h28.216v122.221H134.25z M108.436,122.459v118.161H76.58v-70.152
	C76.58,149.014,89.552,130.378,108.436,122.459z M425.727,353.367H86.273c-5.345,0-9.693-4.349-9.693-9.694v-77.238h358.84v77.238
	C435.42,349.018,431.072,353.367,425.727,353.367z"/>
<path d="M121.343,272.025c-21.273,0-38.58,17.301-38.58,38.567s17.306,38.567,38.58,38.567c21.266,0,38.567-17.301,38.567-38.567
	C159.91,289.326,142.609,272.025,121.343,272.025z M121.343,323.345c-7.038,0-12.765-5.721-12.765-12.753
	s5.727-12.753,12.765-12.753c7.032,0,12.753,5.721,12.753,12.753S128.375,323.345,121.343,323.345z"/>
<path d="M391.535,272.025c-21.266,0-38.567,17.301-38.567,38.567s17.301,38.567,38.567,38.567s38.567-17.301,38.567-38.567
	C430.102,289.326,412.8,272.025,391.535,272.025z M391.535,323.345c-7.032,0-12.753-5.721-12.753-12.753s5.721-12.753,12.753-12.753
	s12.753,5.721,12.753,12.753S398.567,323.345,391.535,323.345z"/>
<path d="M313.664,296.988h-44.75v-8.829c0-7.128-5.779-12.907-12.907-12.907s-12.907,5.78-12.907,12.907v8.829h-44.75
	c-7.129,0-12.907,5.78-12.907,12.907s5.779,12.907,12.907,12.907h44.75v8.843c0,7.128,5.779,12.907,12.907,12.907
	s12.907-5.78,12.907-12.907v-8.843h44.75c7.129,0,12.907-5.78,12.907-12.907S320.793,296.988,313.664,296.988z"/>
<g>
</g>
<g>
</g>
<g>
</g>
<g>
</g>
<g>
</g>
<g>
</g>
<g>
</g>
<g>
</g>
<g>
</g>
<g>
</g>
<g>
</g>
<g>
</g>
<g>
</g>
<g>
</g>
<g>
</g>
</svg>
