<?xml version="1.0" encoding="iso-8859-1"?>
<!-- Generator: Adobe Illustrator 19.1.0, SVG Export Plug-In . SVG Version: 6.00 Build 0)  -->
<svg version="1.1" id="Capa_1" xmlns="http://www.w3.org/2000/svg" xmlns:xlink="http://www.w3.org/1999/xlink" x="0px" y="0px"
	 viewBox="0 0 467.79 467.79" style="enable-background:new 0 0 467.79 467.79;" xml:space="preserve">
<g>
	<g id="XMLID_29_">
		<g>
			<polygon style="fill:#EFEF78;" points="428.53,416.48 406.83,457.79 60.96,457.79 39.26,416.48 90.54,416.48 237.44,416.48 
				277.19,416.48 377.26,416.48 			"/>
			<path style="fill:#CE8D51;" d="M295.07,37.3c0,1.27-0.13,2.57-0.4,3.86l-11.09,58.27c-16.33-3.85-33.01-5.77-49.68-5.77
				c-16.68,0-33.36,1.92-49.69,5.77l-11.09-58.27c-1.85-9.01,2.98-18.06,11.5-21.52c15.8-6.43,32.54-9.64,49.28-9.64
				s33.48,3.21,49.28,9.64C290.47,22.6,295.07,29.67,295.07,37.3z"/>
			<path style="fill:#CE8D51;" d="M184.21,99.43c16.33-3.85,33.01-5.77,49.69-5.77c16.67,0,33.35,1.92,49.68,5.77
				c11.09,2.61,22.02,6.1,32.69,10.48c4.8,1.97,8.77,5.29,11.53,9.42c2.77,4.13,4.34,9.06,4.34,14.25v97.72l-0.12,0.41
				c-32.08-9.06-65.1-13.59-98.12-13.59c-5.93,0-11.86,0.14-98.13,13.59l-0.12-0.41v-97.72c0-10.38,6.27-19.73,15.87-23.67
				C162.19,105.53,173.12,102.04,184.21,99.43z"/>
			<path style="fill:#CE8D51;" d="M386.51,268.35c0,0.52-0.02,1.04-0.05,1.57l-2.52,40.19h-0.07h-8.12
				c-10.54,0-19.08,8.54-19.08,19.08v33.43c0,5.48-2.23,10.45-5.82,14.05c-3.6,3.59-8.57,5.82-14.05,5.82
				c-10.97,0-19.87-8.9-19.87-19.87v-23.94v-37.49c0-5.49-2.23-10.46-5.82-14.06c-3.6-3.59-8.57-5.82-14.05-5.82
				c-10.98,0-19.87,8.9-19.87,19.88v37.49v77.11v0.69h-39.75v-0.69v-77.11c0-10.97-8.89-19.87-19.87-19.87
				c-5.49,0-10.45,2.23-14.05,5.82c-3.6,3.6-5.82,8.57-5.82,14.05v30.61c0,10.97-8.89,19.87-19.87,19.87
				c-5.49,0-10.45-2.22-14.05-5.82s-5.82-8.56-5.82-14.05V327.2c0-10.97-8.9-19.87-19.87-19.87c-5.49,0-10.46,2.23-14.05,5.82
				c-3.6,3.6-5.82,8.57-5.82,14.05v43.62c0,10.97-8.9,19.86-19.87,19.86h-9.29l-0.14,0.01l-7.59-120.77
				c-0.67-10.73,5.57-20.7,15.51-24.78c12.77-5.24,25.77-9.72,38.93-13.43c86.27-13.45,92.2-13.59,98.13-13.59
				c33.02,0,66.04,4.53,98.12,13.59c13.16,3.71,26.16,8.19,38.93,13.43C380.4,249.02,386.51,258.23,386.51,268.35z"/>
			<path style="fill:#B26E36;" d="M237.44,415.79v0.69H90.54l-1.62-25.79l0.14-0.01h9.29c10.97,0,19.87-8.89,19.87-19.86V327.2
				c0-5.48,2.22-10.45,5.82-14.05c3.59-3.59,8.56-5.82,14.05-5.82c10.97,0,19.87,8.9,19.87,19.87v42.09
				c0,5.49,2.22,10.45,5.82,14.05s8.56,5.82,14.05,5.82c10.98,0,19.87-8.9,19.87-19.87v-30.61c0-5.48,2.22-10.45,5.82-14.05
				c3.6-3.59,8.56-5.82,14.05-5.82c10.98,0,19.87,8.9,19.87,19.87V415.79z"/>
			<path style="fill:#B26E36;" d="M383.94,310.11l-6.68,106.37H277.19v-0.69v-77.11v-37.49c0-10.98,8.89-19.88,19.87-19.88
				c5.48,0,10.45,2.23,14.05,5.82c3.59,3.6,5.82,8.57,5.82,14.06v37.49v23.94c0,10.97,8.9,19.87,19.87,19.87
				c5.48,0,10.45-2.23,14.05-5.82c3.59-3.6,5.82-8.57,5.82-14.05v-33.43c0-10.54,8.54-19.08,19.08-19.08h8.12H383.94z"/>
		</g>
		<g>
			<path style="fill:none;stroke:#000000;stroke-width:20;stroke-linejoin:round;stroke-miterlimit:10;" d="M184.35,100.16
				l-0.14-0.73l-11.09-58.27c-1.85-9.01,2.98-18.06,11.5-21.52c15.8-6.43,32.54-9.64,49.28-9.64s33.48,3.21,49.28,9.64
				c7.29,2.96,11.89,10.03,11.89,17.66c0,1.27-0.13,2.57-0.4,3.86l-11.09,58.27l-0.14,0.73"/>
			<path style="fill:none;stroke:#000000;stroke-width:20;stroke-linejoin:round;stroke-miterlimit:10;" d="M135.65,231.3v-97.72
				c0-10.38,6.27-19.73,15.87-23.67c10.67-4.38,21.6-7.87,32.69-10.48c16.33-3.85,33.01-5.77,49.69-5.77
				c16.67,0,33.35,1.92,49.68,5.77c11.09,2.61,22.02,6.1,32.69,10.48c4.8,1.97,8.77,5.29,11.53,9.42c2.77,4.13,4.34,9.06,4.34,14.25
				v97.72"/>
			<path style="fill:none;stroke:#000000;stroke-width:20;stroke-linejoin:round;stroke-miterlimit:10;" d="M90.54,416.48
				l-1.62-25.79l-7.59-120.77c-0.67-10.73,5.57-20.7,15.51-24.78c12.77-5.24,25.77-9.72,38.93-13.43
				c86.27-13.45,92.2-13.59,98.13-13.59c33.02,0,66.04,4.53,98.12,13.59c13.16,3.71,26.16,8.19,38.93,13.43
				c9.45,3.88,15.56,13.09,15.56,23.21c0,0.52-0.02,1.04-0.05,1.57l-2.52,40.19l-6.68,106.37"/>
			<polygon style="fill:none;stroke:#000000;stroke-width:20;stroke-linejoin:round;stroke-miterlimit:10;" points="377.26,416.48 
				428.53,416.48 406.83,457.79 60.96,457.79 39.26,416.48 90.54,416.48 237.44,416.48 277.19,416.48 			"/>
			<path style="fill:none;stroke:#000000;stroke-width:20;stroke-linejoin:round;stroke-miterlimit:10;" d="M277.19,415.79v-77.11
				v-37.49c0-10.98,8.89-19.88,19.87-19.88c5.48,0,10.45,2.23,14.05,5.82c3.59,3.6,5.82,8.57,5.82,14.06v37.49v23.94
				c0,10.97,8.9,19.87,19.87,19.87c5.48,0,10.45-2.23,14.05-5.82c3.59-3.6,5.82-8.57,5.82-14.05v-33.43
				c0-10.54,8.54-19.08,19.08-19.08h8.12"/>
			<path style="fill:none;stroke:#000000;stroke-width:20;stroke-linejoin:round;stroke-miterlimit:10;" d="M237.44,415.79v-77.11
				c0-10.97-8.89-19.87-19.87-19.87c-5.49,0-10.45,2.23-14.05,5.82c-3.6,3.6-5.82,8.57-5.82,14.05v30.61
				c0,10.97-8.89,19.87-19.87,19.87c-5.49,0-10.45-2.22-14.05-5.82s-5.82-8.56-5.82-14.05V327.2c0-10.97-8.9-19.87-19.87-19.87
				c-5.49,0-10.46,2.23-14.05,5.82c-3.6,3.6-5.82,8.57-5.82,14.05v43.62c0,10.97-8.9,19.86-19.87,19.86h-9.29"/>
			
				<line style="fill:none;stroke:#000000;stroke-width:20;stroke-linecap:round;stroke-linejoin:round;stroke-miterlimit:10;" x1="274.67" y1="180.3" x2="274.67" y2="220.38"/>
			
				<line style="fill:none;stroke:#000000;stroke-width:20;stroke-linecap:round;stroke-linejoin:round;stroke-miterlimit:10;" x1="160.67" y1="201.3" x2="160.67" y2="224.88"/>
			
				<line style="fill:none;stroke:#000000;stroke-width:20;stroke-linecap:round;stroke-linejoin:round;stroke-miterlimit:10;" x1="309.17" y1="117.3" x2="309.17" y2="140.88"/>
			
				<line style="fill:none;stroke:#000000;stroke-width:20;stroke-linecap:round;stroke-linejoin:round;stroke-miterlimit:10;" x1="274.67" y1="136.38" x2="274.67" y2="144.3"/>
			
				<line style="fill:none;stroke:#000000;stroke-width:20;stroke-linecap:round;stroke-linejoin:round;stroke-miterlimit:10;" x1="249.17" y1="76.8" x2="249.17" y2="84.72"/>
			
				<line style="fill:none;stroke:#000000;stroke-width:20;stroke-linecap:round;stroke-linejoin:round;stroke-miterlimit:10;" x1="216.17" y1="16.59" x2="216.17" y2="36.31"/>
			
				<line style="fill:none;stroke:#000000;stroke-width:20;stroke-linecap:round;stroke-linejoin:round;stroke-miterlimit:10;" x1="202.67" y1="140.46" x2="202.67" y2="100.38"/>
		</g>
	</g>
</g>
<g>
</g>
<g>
</g>
<g>
</g>
<g>
</g>
<g>
</g>
<g>
</g>
<g>
</g>
<g>
</g>
<g>
</g>
<g>
</g>
<g>
</g>
<g>
</g>
<g>
</g>
<g>
</g>
<g>
</g>
</svg>
