<?xml version="1.0" encoding="iso-8859-1"?>
<!-- Generator: Adobe Illustrator 19.0.0, SVG Export Plug-In . SVG Version: 6.00 Build 0)  -->
<svg version="1.1" id="Layer_1" xmlns="http://www.w3.org/2000/svg" xmlns:xlink="http://www.w3.org/1999/xlink" x="0px" y="0px"
	 viewBox="0 0 512 512" style="enable-background:new 0 0 512 512;" xml:space="preserve">
<path style="fill:#5A5D6F;" d="M498.895,389.157v59.338c0,14.966-12.135,27.1-27.1,27.1H40.205c-14.966,0-27.1-12.135-27.1-27.1
	v-59.338h485.777H498.895z"/>
<path style="fill:#9DA6BA;" d="M498.882,389.157H13.105c0,0,116.763-40.231,120.406-170.741h0.105
	c-0.97,53.847,33.954,103.828,88.129,119.633c58.473,17.036,119.41-11.532,144.715-64.829c2.791-5.845,5.137-11.991,7.011-18.399
	c3.578-12.266,5.137-24.637,4.888-36.772h0.105C381.897,348.847,498.882,389.157,498.882,389.157z"/>
<g>
	<path style="fill:#5A5D6F;" d="M489.486,151.097v11.453c0,21.95-16.499,39.209-35.736,37.388l-78.641-7.43
		c-4.849-20.522-14.952-39.498-29.25-54.974l0.013-0.013L489.486,151.097z"/>
	<path style="fill:#5A5D6F;" d="M22.409,151.097v11.453c0,21.95,16.499,39.209,35.736,37.388l78.641-7.43
		c4.849-20.522,14.952-39.498,29.25-54.974l-0.013-0.013L22.409,151.097z"/>
</g>
<path style="fill:#9DA6BA;" d="M489.486,110.8v40.297l-143.614-13.576l-0.013,0.013c-14.546-15.804-33.482-27.965-55.616-34.426
	c-46.089-13.445-93.725,1.481-124.206,34.505l-0.092-0.079L22.501,151.097V110.8c0-41.083,104.549-74.395,233.499-74.395
	S489.486,69.717,489.486,110.8z"/>
<path style="fill:#E1EAF6;" d="M366.459,273.22c-25.305,53.297-86.242,81.865-144.715,64.829
	c-54.175-15.804-89.099-65.785-88.129-119.633c0.157-8.584,1.232-17.259,3.289-25.908c0.485-2.071,1.022-4.128,1.625-6.185
	c5.478-18.779,15.057-35.252,27.507-48.71c30.481-33.024,78.117-47.95,124.206-34.505c22.134,6.461,41.07,18.622,55.616,34.426
	c14.297,15.477,24.401,34.452,29.25,54.974c1.966,8.308,3.08,16.853,3.25,25.541c0.249,12.135-1.31,24.506-4.888,36.772
	C371.596,261.229,369.251,267.375,366.459,273.22z M299.521,299.94c6.343-3.486,8.662-11.454,5.189-17.796
	c-3.486-6.343-11.454-8.675-17.796-5.189s-8.662,11.44-5.189,17.796C285.21,301.093,293.178,303.413,299.521,299.94z
	 M290.243,149.931c2.031-6.945-1.953-14.219-8.911-16.25c-6.945-2.018-14.219,1.966-16.25,8.911
	c-2.018,6.945,1.966,14.232,8.911,16.25C280.951,160.873,288.224,156.876,290.243,149.931z M283.061,220.578
	c0-14.952-12.122-27.061-27.061-27.061c-14.952,0-27.061,12.109-27.061,27.061c0,14.939,12.109,27.061,27.061,27.061
	C270.939,247.639,283.061,235.517,283.061,220.578z M261.897,310.896c7.234-0.472,12.698-6.71,12.227-13.93
	c-0.472-7.221-6.71-12.698-13.93-12.227c-7.221,0.472-12.698,6.71-12.227,13.93S254.676,311.367,261.897,310.896z M246.224,157.02
	c7.155-1.101,12.056-7.797,10.956-14.952c-1.101-7.142-7.784-12.056-14.939-10.956c-7.155,1.101-12.056,7.797-10.956,14.952
	C232.385,153.207,239.069,158.121,246.224,157.02z M240.143,297.463c2.621-6.749-0.721-14.337-7.457-16.957
	c-6.749-2.634-14.35,0.708-16.971,7.457c-2.621,6.749,0.721,14.337,7.47,16.971C229.922,307.554,237.522,304.212,240.143,297.463z
	 M220.277,167.098c6.015-4.01,7.64-12.148,3.617-18.176c-4.023-6.015-12.161-7.627-18.176-3.617
	c-6.015,4.023-7.64,12.161-3.617,18.176C206.124,169.509,214.262,171.121,220.277,167.098z M209.138,283.559
	c5.229-5.006,5.412-13.301,0.406-18.53c-5.006-5.229-13.301-5.412-18.53-0.406c-5.229,5.006-5.412,13.301-0.406,18.53
	C195.614,288.382,203.909,288.565,209.138,283.559z M201.026,187.214c3.761-6.199,1.782-14.258-4.403-18.006
	c-6.185-3.761-14.245-1.782-18.006,4.403c-3.748,6.185-1.782,14.245,4.403,18.006C189.219,195.365,197.278,193.399,201.026,187.214z
	 M186.899,257.861c6.854-2.333,10.536-9.776,8.204-16.63c-2.32-6.854-9.763-10.523-16.617-8.19
	c-6.854,2.32-10.523,9.763-8.204,16.617C172.615,256.511,180.045,260.18,186.899,257.861z M192.075,213.567
	c0.786-7.194-4.403-13.668-11.598-14.454c-7.194-0.786-13.668,4.403-14.454,11.598c-0.786,7.194,4.403,13.668,11.598,14.454
	C184.815,225.951,191.289,220.762,192.075,213.567z"/>
<path style="fill:#9DA6BA;" d="M256,193.517c14.939,0,27.061,12.109,27.061,27.061c0,14.939-12.122,27.061-27.061,27.061
	c-14.952,0-27.061-12.122-27.061-27.061C228.939,205.626,241.048,193.517,256,193.517z"/>
<path d="M286.914,276.954c-6.343,3.486-8.662,11.44-5.189,17.796c3.486,6.343,11.453,8.662,17.796,5.189
	c6.343-3.486,8.662-11.454,5.189-17.796C301.224,275.801,293.257,273.469,286.914,276.954z"/>
<path d="M265.082,142.592c-2.018,6.945,1.966,14.232,8.911,16.25c6.959,2.031,14.232-1.966,16.25-8.911
	c2.031-6.945-1.953-14.219-8.911-16.25C274.386,131.663,267.113,135.647,265.082,142.592z"/>
<path d="M260.193,284.739c-7.221,0.472-12.698,6.71-12.227,13.93s6.71,12.698,13.93,12.227c7.234-0.472,12.698-6.71,12.227-13.93
	C273.652,289.745,267.414,284.267,260.193,284.739z"/>
<path d="M246.224,157.02c7.155-1.101,12.056-7.797,10.956-14.952c-1.101-7.142-7.784-12.056-14.939-10.956
	c-7.155,1.101-12.056,7.797-10.956,14.952C232.385,153.207,239.069,158.121,246.224,157.02z"/>
<path d="M232.687,280.506c-6.749-2.634-14.35,0.708-16.971,7.457c-2.621,6.749,0.721,14.337,7.47,16.971
	c6.736,2.621,14.337-0.721,16.957-7.47C242.764,290.714,239.423,283.127,232.687,280.506z"/>
<path d="M220.277,167.098c6.015-4.01,7.64-12.148,3.617-18.176c-4.023-6.015-12.161-7.627-18.176-3.617
	c-6.015,4.023-7.64,12.161-3.617,18.176C206.124,169.509,214.262,171.121,220.277,167.098z"/>
<circle cx="200.082" cy="274.098" r="13.105"/>
<path d="M183.02,191.617c6.199,3.748,14.258,1.782,18.006-4.403c3.761-6.199,1.782-14.258-4.403-18.006
	c-6.185-3.761-14.245-1.782-18.006,4.403C174.869,179.796,176.835,187.856,183.02,191.617z"/>
<path d="M195.103,241.231c-2.32-6.854-9.763-10.523-16.617-8.19c-6.854,2.32-10.523,9.763-8.204,16.617
	c2.333,6.854,9.763,10.523,16.617,8.204C193.753,255.528,197.435,248.085,195.103,241.231z"/>
<circle cx="179.049" cy="212.139" r="13.105"/>
<path d="M369.028,389.157c0,7.236,5.867,13.105,13.105,13.105h4.259c7.238,0,13.105-5.868,13.105-13.105
	c0-7.236-5.867-13.105-13.105-13.105h-4.259C374.895,376.052,369.028,381.92,369.028,389.157z"/>
<path d="M256,180.412c-22.147,0-40.166,18.018-40.166,40.165s18.019,40.166,40.166,40.166s40.166-18.018,40.166-40.165
	S278.147,180.412,256,180.412z M256,234.535c-7.696,0-13.956-6.26-13.956-13.956c0-7.695,6.26-13.955,13.956-13.955
	c7.696,0,13.956,6.26,13.956,13.955C269.956,228.274,263.696,234.535,256,234.535z"/>
<path d="M120.498,212.139c0,2.136-0.028,4.053-0.086,5.912c-1.396,50.007-20.384,91.802-56.437,124.222
	C36.6,366.888,9.083,376.681,8.835,376.768c-0.096,0.033-0.185,0.077-0.279,0.113c-0.271,0.101-0.54,0.204-0.802,0.322
	c-0.159,0.071-0.312,0.148-0.467,0.225c-0.22,0.11-0.439,0.221-0.653,0.342c-0.185,0.105-0.363,0.216-0.541,0.329
	c-0.172,0.109-0.341,0.218-0.507,0.334c-0.197,0.138-0.385,0.282-0.573,0.429c-0.14,0.11-0.279,0.221-0.414,0.337
	c-0.189,0.161-0.37,0.328-0.548,0.498c-0.127,0.122-0.253,0.245-0.375,0.372c-0.165,0.172-0.324,0.347-0.478,0.527
	c-0.126,0.145-0.249,0.292-0.368,0.443c-0.134,0.169-0.261,0.341-0.385,0.516c-0.127,0.177-0.249,0.356-0.367,0.54
	c-0.102,0.159-0.199,0.321-0.294,0.484c-0.122,0.208-0.237,0.419-0.347,0.634c-0.079,0.153-0.151,0.308-0.223,0.464
	c-0.105,0.228-0.206,0.459-0.297,0.693c-0.063,0.161-0.121,0.324-0.178,0.486c-0.08,0.229-0.156,0.46-0.223,0.696
	c-0.055,0.19-0.101,0.381-0.147,0.573c-0.05,0.21-0.098,0.421-0.138,0.634c-0.045,0.235-0.077,0.472-0.109,0.709
	c-0.024,0.178-0.047,0.355-0.063,0.535c-0.025,0.278-0.035,0.558-0.042,0.839C0.013,388.946,0,389.051,0,389.157v59.337
	C0,470.663,18.036,488.7,40.205,488.7h431.59c22.169,0,40.205-18.037,40.205-40.206v-59.337c0-0.246-0.024-0.487-0.037-0.73
	c-0.004-0.077-0.007-0.156-0.012-0.233c-0.028-0.368-0.071-0.73-0.128-1.089c-0.008-0.051-0.014-0.102-0.024-0.153
	c-0.066-0.384-0.148-0.76-0.246-1.132c-0.007-0.026-0.013-0.054-0.021-0.08c-0.105-0.385-0.225-0.763-0.363-1.132
	c-0.008-0.021-0.014-0.041-0.022-0.062c-0.138-0.364-0.291-0.721-0.46-1.069c-0.017-0.037-0.035-0.073-0.052-0.11
	c-0.16-0.324-0.333-0.638-0.518-0.945c-0.041-0.067-0.081-0.134-0.122-0.201c-0.169-0.27-0.349-0.532-0.536-0.789
	c-0.073-0.101-0.147-0.199-0.223-0.297c-0.168-0.216-0.343-0.426-0.524-0.63c-0.11-0.125-0.221-0.248-0.335-0.37
	c-0.165-0.173-0.334-0.339-0.507-0.503c-0.142-0.134-0.284-0.265-0.431-0.392c-0.169-0.145-0.343-0.286-0.52-0.423
	c-0.159-0.123-0.317-0.244-0.481-0.359c-0.191-0.135-0.387-0.262-0.586-0.387c-0.157-0.098-0.313-0.197-0.474-0.288
	c-0.229-0.131-0.465-0.252-0.704-0.37c-0.142-0.069-0.28-0.14-0.425-0.204c-0.273-0.122-0.55-0.231-0.832-0.334
	c-0.089-0.033-0.172-0.075-0.262-0.106c-1.084-0.374-108.429-38.741-111.588-159.071c-0.05-1.836-0.075-3.686-0.075-5.558
	c0-1.32-0.199-2.593-0.564-3.795c-0.037-0.396-0.064-0.793-0.104-1.189l61.69,5.828c1.356,0.13,2.706,0.193,4.052,0.191
	c10.725,0,21.019-4.049,29.345-11.625c10.6-9.642,16.68-23.858,16.68-39v-11.548c0-0.008,0-0.014,0-0.022V110.8
	c0-26.424-26.804-48.933-77.513-65.091C379.725,31.259,319.678,23.3,256,23.3c-63.68,0-123.728,7.958-169.085,22.41
	C36.202,61.867,9.396,84.376,9.396,110.8v40.18c0,0.008,0,0.014,0,0.022v11.548c0,15.141,6.079,29.356,16.681,39
	c8.327,7.576,18.619,11.626,29.343,11.626c1.345,0,2.696-0.064,4.051-0.191l61.705-5.829c-0.039,0.385-0.069,0.771-0.105,1.156
	C120.699,209.523,120.498,210.807,120.498,212.139z M431.245,362.439c5.723,5.098,11.429,9.617,16.942,13.614h-22.481
	c-7.238,0-13.105,5.868-13.105,13.105c0,7.236,5.867,13.105,13.105,13.105h60.085v46.232c0,7.719-6.278,13.997-13.996,13.997H40.205
	c-7.717,0-13.996-6.278-13.996-13.997v-46.233h316.609c7.238,0,13.105-5.868,13.105-13.105c0-7.236-5.867-13.105-13.105-13.105H63.8
	c5.484-3.976,11.159-8.468,16.851-13.533c19.408-17.264,41.488-43.555,54.569-80.668c16.585,32.564,46.081,58.051,82.858,68.78
	c12.411,3.617,25.181,5.411,37.918,5.411c19.172,0,38.271-4.066,55.962-12.1c28.1-12.761,50.989-34.746,64.817-62.07
	C389.841,318.927,411.867,345.183,431.245,362.439z M336.232,146.425c12.767,13.82,21.8,30.797,26.124,49.101
	c1.776,7.504,2.752,15.167,2.9,22.781c0,0.004,0,0.008,0,0.012c0.227,11.073-1.242,22.121-4.364,32.825
	c-0.419,1.434-0.866,2.856-1.341,4.267l-35.035-16.702c-6.533-3.112-14.354-0.345-17.469,6.191
	c-3.114,6.533-0.343,14.354,6.191,17.467l35.054,16.711c-25.694,40.862-75.356,60.238-122.876,46.395
	c-47.22-13.777-79.581-57.7-78.696-106.812c0.142-7.747,1.13-15.525,2.946-23.161c0.447-1.909,0.919-3.705,1.447-5.503
	c4.791-16.424,13.05-31.053,24.556-43.492c21.105-22.865,50.066-35.248,80.033-35.248c10.265,0,20.648,1.452,30.872,4.436
	C305.688,121.268,322.854,131.889,336.232,146.425z M454.982,186.891l-69.646-6.58c-2.938-9.412-6.889-18.474-11.773-27.009
	l102.797,9.718c-0.118,7.593-3.038,14.551-8.086,19.143C465.556,184.637,461.042,187.466,454.982,186.891z M94.873,70.683
	C137.725,57.029,194.948,49.509,256,49.509c61.051,0,118.271,7.519,161.121,21.173c43.741,13.937,59.261,30.322,59.261,40.117
	v25.895L351.92,124.928c-16.031-16.117-35.979-27.971-58.008-34.401c-48.005-14.004-98.803-0.814-133.856,34.398l-124.45,11.768
	V110.8C35.605,101.006,51.128,84.621,94.873,70.683z M57.001,186.892c-6.062,0.56-10.57-2.255-13.288-4.728
	c-5.048-4.592-7.968-11.552-8.086-19.143l102.738-9.715c-4.838,8.472-8.743,17.493-11.697,27.005L57.001,186.892z"/>
<g>
</g>
<g>
</g>
<g>
</g>
<g>
</g>
<g>
</g>
<g>
</g>
<g>
</g>
<g>
</g>
<g>
</g>
<g>
</g>
<g>
</g>
<g>
</g>
<g>
</g>
<g>
</g>
<g>
</g>
</svg>
