<?xml version="1.0" encoding="iso-8859-1"?>
<!-- Generator: Adobe Illustrator 19.0.0, SVG Export Plug-In . SVG Version: 6.00 Build 0)  -->
<svg version="1.1" id="Layer_1" xmlns="http://www.w3.org/2000/svg" xmlns:xlink="http://www.w3.org/1999/xlink" x="0px" y="0px"
	 viewBox="0 0 512 512" style="enable-background:new 0 0 512 512;" xml:space="preserve">
<path style="fill:#FF6464;" d="M392.904,200.626c59.626,0,107.965,48.339,107.965,107.965c0,29.818-12.088,56.799-31.622,76.344
	c-19.534,19.534-46.536,31.622-76.344,31.622H369.53H138.574h-19.478c-59.626,0-107.965-48.339-107.965-107.965
	c0-29.818,12.088-56.799,31.622-76.344c19.534-19.534,46.536-31.622,76.344-31.622H256H392.904z M458.574,308.591
	c0-39.112-31.699-70.812-70.812-70.812s-70.812,31.699-70.812,70.812s31.699,70.812,70.812,70.812S458.574,347.704,458.574,308.591z
	 M303.861,379.403L281.6,331.542h-51.2l-22.261,47.861H303.861z M195.05,308.591c0-39.112-31.699-70.812-70.812-70.812
	s-70.812,31.699-70.812,70.812s31.699,70.812,70.812,70.812S195.05,347.704,195.05,308.591z"/>
<path style="fill:#9DA6BA;" d="M387.762,237.779c39.112,0,70.812,31.699,70.812,70.812s-31.699,70.812-70.812,70.812
	s-70.812-31.699-70.812-70.812S348.65,237.779,387.762,237.779z M412.527,308.591c0-13.679-11.086-24.765-24.765-24.765
	c-13.679,0-24.765,11.086-24.765,24.765c0,13.679,11.086,24.765,24.765,24.765C401.441,333.357,412.527,322.271,412.527,308.591z"/>
<circle style="fill:#5A5D6F;" cx="387.762" cy="308.591" r="24.765"/>
<polygon style="fill:#FFA8A8;" points="281.6,331.542 303.861,379.403 208.139,379.403 230.4,331.542 "/>
<path style="fill:#9DA6BA;" d="M124.238,237.779c39.112,0,70.812,31.699,70.812,70.812s-31.699,70.812-70.812,70.812
	s-70.812-31.699-70.812-70.812S85.126,237.779,124.238,237.779z M149.003,308.591c0-13.679-11.086-24.765-24.765-24.765
	s-24.765,11.086-24.765,24.765c0,13.679,11.086,24.765,24.765,24.765S149.003,322.271,149.003,308.591z"/>
<circle style="fill:#5A5D6F;" cx="124.238" cy="308.591" r="24.765"/>
<path d="M365.078,189.496h-3.2c-6.146,0-11.13,4.984-11.13,11.13c0,6.146,4.984,11.13,11.13,11.13h3.2
	c6.146,0,11.13-4.984,11.13-11.13C376.209,194.48,371.224,189.496,365.078,189.496z"/>
<path d="M392.904,189.496c-6.146,0-11.13,4.984-11.13,11.13c0,6.146,4.984,11.13,11.13,11.13c53.395,0,96.835,43.44,96.835,96.835
	c0,25.856-10.073,50.174-28.361,68.473c-18.29,18.288-42.607,28.361-68.473,28.361H119.096c-53.395,0-96.835-43.44-96.835-96.835
	c0-25.856,10.073-50.174,28.361-68.473c18.29-18.288,42.607-28.361,68.473-28.361h213.148c6.146,0,11.13-4.984,11.13-11.13
	c0-6.146-4.984-11.13-11.13-11.13h-49.371L394.653,77.714c4.346-4.346,4.346-11.394,0-15.742c-4.348-4.345-11.393-4.345-15.742,0
	L256,184.884L133.088,61.972c-4.348-4.345-11.393-4.345-15.742,0c-4.346,4.346-4.346,11.394,0,15.742l111.782,111.782H119.096
	c-31.812,0-61.719,12.388-84.216,34.884C12.387,246.884,0,276.791,0,308.591c0,65.67,53.426,119.096,119.096,119.096h8.348v14.47
	c0,6.146,4.984,11.13,11.13,11.13c6.146,0,11.13-4.984,11.13-11.13v-14.47H358.4v14.47c0,6.146,4.984,11.13,11.13,11.13
	c6.146,0,11.13-4.984,11.13-11.13v-14.47h12.243c31.812,0,61.719-12.388,84.216-34.884C499.613,370.297,512,340.391,512,308.591
	C512,242.922,458.574,189.496,392.904,189.496z"/>
<path d="M124.238,226.649c-45.184,0-81.942,36.758-81.942,81.942s36.758,81.942,81.942,81.942s81.942-36.758,81.942-81.942
	S169.422,226.649,124.238,226.649z M124.238,368.273c-32.908,0-59.681-26.773-59.681-59.681s26.773-59.681,59.681-59.681
	s59.681,26.773,59.681,59.681S157.147,368.273,124.238,368.273z"/>
<path d="M149.003,297.461c-6.146,0-11.13,4.984-11.13,11.13c0,7.519-6.116,13.635-13.635,13.635s-13.635-6.116-13.635-13.635
	s6.116-13.635,13.635-13.635c6.146,0,11.13-4.984,11.13-11.13c0-6.146-4.984-11.13-11.13-11.13
	c-19.793,0-35.896,16.102-35.896,35.896s16.102,35.896,35.896,35.896s35.896-16.102,35.896-35.896
	C160.134,302.444,155.15,297.461,149.003,297.461z"/>
<path d="M387.762,390.534c45.184,0,81.942-36.758,81.942-81.942s-36.758-81.942-81.942-81.942s-81.942,36.758-81.942,81.942
	S342.578,390.534,387.762,390.534z M387.762,248.91c32.908,0,59.681,26.773,59.681,59.681s-26.773,59.681-59.681,59.681
	s-59.681-26.773-59.681-59.681S354.853,248.91,387.762,248.91z"/>
<path d="M208.139,390.534h95.722c3.801,0,7.341-1.94,9.385-5.146c2.044-3.206,2.311-7.231,0.708-10.68l-22.261-47.861
	c-1.826-3.925-5.763-6.436-10.092-6.436h-51.2c-4.33,0-8.267,2.511-10.092,6.436l-22.261,47.861
	c-1.603,3.448-1.336,7.474,0.708,10.68C200.799,388.594,204.338,390.534,208.139,390.534z M237.499,342.673h37.002l11.907,25.6
	h-60.817L237.499,342.673z"/>
<path d="M256,226.649c-6.146,0-11.13,4.984-11.13,11.13v42.986H230.4c-6.146,0-11.13,4.984-11.13,11.13
	c0,6.146,4.984,11.13,11.13,11.13h51.2c6.146,0,11.13-4.984,11.13-11.13c0-6.146-4.984-11.13-11.13-11.13h-14.47v-42.986
	C267.13,231.632,262.146,226.649,256,226.649z"/>
<path d="M387.762,344.487c19.793,0,35.896-16.102,35.896-35.896c0-6.146-4.984-11.13-11.13-11.13c-6.146,0-11.13,4.984-11.13,11.13
	c0,7.519-6.116,13.635-13.635,13.635s-13.635-6.116-13.635-13.635s6.116-13.635,13.635-13.635c6.146,0,11.13-4.984,11.13-11.13
	c0-6.146-4.984-11.13-11.13-11.13c-19.793,0-35.896,16.102-35.896,35.896S367.969,344.487,387.762,344.487z"/>
<g>
</g>
<g>
</g>
<g>
</g>
<g>
</g>
<g>
</g>
<g>
</g>
<g>
</g>
<g>
</g>
<g>
</g>
<g>
</g>
<g>
</g>
<g>
</g>
<g>
</g>
<g>
</g>
<g>
</g>
</svg>
