<?xml version="1.0" encoding="iso-8859-1"?>
<!-- Generator: Adobe Illustrator 19.1.0, SVG Export Plug-In . SVG Version: 6.00 Build 0)  -->
<svg version="1.1" id="Capa_1" xmlns="http://www.w3.org/2000/svg" xmlns:xlink="http://www.w3.org/1999/xlink" x="0px" y="0px"
	 viewBox="0 0 416.73 416.73" style="enable-background:new 0 0 416.73 416.73;" xml:space="preserve">
<g>
	<g id="XMLID_1_">
		<g>
			<path style="fill:#7FDDD3;" d="M289.54,163.945l-29.76,30.11l-34.53-26.09c-14.36-10.86-33.19-13.57-49.98-7.2l-16.17,6.13
				c-24.64-41.13-35.37-90.52-28.23-140.47l1.41-9.88c26.27,43.86,64.92,78.75,110.98,100.16l16.34,7.6
				C275.49,131.695,286.69,146.555,289.54,163.945z"/>
			<polygon style="fill:#7FDDD3;" points="193.47,340.495 142.74,400.185 49.17,388.365 122.43,333.055 			"/>
			<path style="fill:#7FDDD3;" d="M259.78,194.055l29.76-30.11l36.03-36.45c20.11-20.36,52.74-20.36,72.86,0
				c5.53,5.6,8.3,12.95,8.3,20.28c0,3.9-0.1,11.82-0.19,18.38c-0.09,5.79-4.83,10.43-10.62,10.39c-6.27-0.04-18.68,5.64-37.57-8.48
				l-11,83.78c-7.57,57.55-58.99,98.58-116.05,92.61l-37.83-3.96l-71.04-7.44l63.41-64.16v-0.01c-65.42,0.72-129-29.62-169.9-84.56
				l-5.94-7.97c19.55,4.77,39.49,7.14,59.39,7.14c30.25,0,60.42-5.48,89.04-16.34l0.67-0.26l16.17-6.13
				c16.79-6.37,35.62-3.66,49.98,7.2L259.78,194.055z"/>
		</g>
		<g>
			<polyline style="fill:none;stroke:#000000;stroke-width:20;stroke-linejoin:round;stroke-miterlimit:10;" points="
				193.47,340.495 142.74,400.185 49.17,388.365 122.43,333.055 			"/>
			<path style="fill:none;stroke:#000000;stroke-width:20;stroke-linecap:round;stroke-linejoin:round;stroke-miterlimit:10;" d="
				M259.79,194.065l-0.01-0.01l29.76-30.11l36.03-36.45c20.11-20.36,52.74-20.36,72.86,0c5.53,5.6,8.3,12.95,8.3,20.28
				c0,3.9-0.1,11.82-0.19,18.38c-0.09,5.79-4.83,10.43-10.62,10.39c-6.27-0.04-18.68,5.64-37.57-8.48l-11,83.78
				c-7.57,57.55-58.99,98.58-116.05,92.61l-37.83-3.96l-71.04-7.44l63.41-64.16"/>
			<path style="fill:none;stroke:#000000;stroke-width:20;stroke-linecap:round;stroke-linejoin:round;stroke-miterlimit:10;" d="
				M251.39,257.475c-21.53,7.44-43.64,11.17-65.55,11.41c-65.42,0.72-129-29.62-169.9-84.56l-5.94-7.97
				c19.55,4.77,39.49,7.14,59.39,7.14c30.25,0,60.42-5.48,89.04-16.34l0.67-0.26l16.17-6.13c16.79-6.37,35.62-3.66,49.98,7.2
				l34.53,26.09"/>
			<path style="fill:none;stroke:#000000;stroke-width:20;stroke-linejoin:round;stroke-miterlimit:10;" d="M159.1,166.895
				c-24.64-41.13-35.37-90.52-28.23-140.47l1.41-9.88c26.27,43.86,64.92,78.75,110.98,100.16l16.34,7.6
				c15.89,7.39,27.09,22.25,29.94,39.64"/>
		</g>
	</g>
</g>
<g>
</g>
<g>
</g>
<g>
</g>
<g>
</g>
<g>
</g>
<g>
</g>
<g>
</g>
<g>
</g>
<g>
</g>
<g>
</g>
<g>
</g>
<g>
</g>
<g>
</g>
<g>
</g>
<g>
</g>
</svg>
