<?xml version="1.0" encoding="iso-8859-1"?>
<!-- Generator: Adobe Illustrator 19.0.0, SVG Export Plug-In . SVG Version: 6.00 Build 0)  -->
<svg version="1.1" id="Layer_1" xmlns="http://www.w3.org/2000/svg" xmlns:xlink="http://www.w3.org/1999/xlink" x="0px" y="0px"
	 viewBox="0 0 282.909 282.909" style="enable-background:new 0 0 282.909 282.909;" xml:space="preserve">
<g>
	<g>
		<g>
			<g id="XMLID_20_">
				<g>
					<rect x="41.511" y="167.065" style="fill:#454D5B;" width="74.39" height="15.416"/>
					<rect x="167.038" y="140.347" style="fill:#454D5B;" width="74.39" height="17.974"/>
					<rect x="167.038" y="174.773" style="fill:#454D5B;" width="74.39" height="91.684"/>
					<rect x="41.511" y="198.933" style="fill:#454D5B;" width="74.39" height="67.524"/>
					<rect x="49.09" y="89.955" style="fill:#F2CE75;" width="58.877" height="60.658"/>
					<polygon style="fill:#EF685E;" points="98.672,45.846 98.672,73.503 58.384,73.503 58.384,22.528 					"/>
					<path style="fill:#2D213F;" d="M257.945,132.121v142.562c0,4.534-3.692,8.226-8.258,8.226h-90.906
						c-4.566,0-8.291-3.692-8.291-8.226V132.121c0-4.566,3.724-8.226,8.291-8.226h90.906
						C254.253,123.895,257.945,127.555,257.945,132.121z M241.428,266.457v-91.684h-74.39v91.684H241.428z M241.428,158.321v-17.974
						h-74.39v17.974H241.428z"/>
					<path style="fill:#2D213F;" d="M132.418,158.839v115.843c0,4.534-3.692,8.226-8.258,8.226H33.221
						c-4.566,0-8.258-3.692-8.258-8.226V158.839c0-4.307,3.336-7.805,7.578-8.161V81.729c0-4.534,3.692-8.226,8.258-8.226h1.036
						V8.214c0-2.947,1.587-5.667,4.145-7.125c2.558-1.457,5.732-1.457,8.291,0.032l56.837,32.871c2.526,1.49,4.081,4.21,4.081,7.125
						v32.386h1.036c4.566,0,8.291,3.692,8.291,8.226v68.917C128.888,150.84,132.418,154.403,132.418,158.839z M115.901,266.457
						v-67.524h-74.39v67.524H115.901z M115.901,182.481v-15.416h-74.39v15.416H115.901z M107.967,150.614V89.955H49.09v60.658
						L107.967,150.614L107.967,150.614z M98.672,73.503V45.846L58.384,22.528v50.975H98.672z"/>
				</g>
			</g>
		</g>
		<path style="fill:#FEDE94;" d="M49.09,150.614h46.435V93.067c0-1.101-0.227-2.144-0.596-3.112H49.09V150.614z"/>
		<rect x="41.511" y="167.065" style="fill:#505967;" width="54.013" height="15.416"/>
		<path style="fill:#505967;" d="M41.511,198.933v52.526c1.927,3.077,5.321,5.136,9.217,5.136h36.217
			c4.735,0,8.576-3.841,8.576-8.576v-49.087h-54.01V198.933z"/>
		<path style="fill:#F47C6D;" d="M58.384,73.503h21.74c1.726-2.082,2.805-4.722,2.805-7.637V44.832c0-3.29-0.712-6.412-1.969-9.236
			L58.381,22.528v50.975H58.384z"/>
		<path style="fill:#505967;" d="M172.897,157.518v0.803h51.393c-0.58-7.128-3.909-13.463-8.929-17.974h-35.287
			C175.643,144.726,172.897,150.798,172.897,157.518z"/>
		<path style="fill:#505967;" d="M172.897,174.773v62.155c0,11.235,9.107,20.341,20.341,20.341h8.501
			c12.517,0,22.66-10.146,22.66-22.66v-59.836L172.897,174.773L172.897,174.773z"/>
	</g>
</g>
<g>
</g>
<g>
</g>
<g>
</g>
<g>
</g>
<g>
</g>
<g>
</g>
<g>
</g>
<g>
</g>
<g>
</g>
<g>
</g>
<g>
</g>
<g>
</g>
<g>
</g>
<g>
</g>
<g>
</g>
</svg>
