<?xml version="1.0" encoding="iso-8859-1"?>
<!-- Generator: Adobe Illustrator 19.0.0, SVG Export Plug-In . SVG Version: 6.00 Build 0)  -->
<svg version="1.1" id="Layer_1" xmlns="http://www.w3.org/2000/svg" xmlns:xlink="http://www.w3.org/1999/xlink" x="0px" y="0px"
	 viewBox="0 0 512 512" style="enable-background:new 0 0 512 512;" xml:space="preserve">
<path style="fill:#F1DCBD;" d="M469.579,356.665v68.027c0,9.452-7.658,17.11-17.11,17.11h-40.71V405.01H100.241v36.792h-40.71
	c-9.452,0-17.11-7.658-17.11-17.11v-68.027H469.579z"/>
<path style="fill:#5A5D6F;" d="M469.579,324.711v31.954H42.421v-31.954c0-9.44,7.658-17.11,17.11-17.11h4.555h165.459h218.37h4.555
	C461.921,307.601,469.579,315.271,469.579,324.711z"/>
<path style="fill:#F1DCBD;" d="M447.914,41.595v266.006h-218.37v-2.395h52.911v-90.694c20.343-9.841,34.385-30.68,34.385-54.811
	s-14.042-44.97-34.385-54.811V14.207V11.8H418.12C434.581,11.8,447.914,25.134,447.914,41.595z M406.072,107.97V62.304h-62.528
	v45.666H406.072z"/>
<g>
	<polygon style="fill:#E1EAF6;" points="411.759,441.802 411.759,500.2 100.241,500.2 100.241,441.802 100.241,405.01 
		411.759,405.01 	"/>
	<rect x="343.544" y="62.304" style="fill:#E1EAF6;" width="62.528" height="45.666"/>
</g>
<path style="fill:#9DA6BA;" d="M282.455,104.89c20.343,9.841,34.385,30.68,34.385,54.811s-14.042,44.97-34.385,54.811
	c-8,3.859-16.98,6.03-26.456,6.03c-9.475,0-18.455-2.171-26.455-6.03c-20.343-9.841-34.385-30.68-34.385-54.811
	s14.042-44.97,34.385-54.811c8-3.859,16.98-6.03,26.455-6.03C265.475,98.86,274.455,101.031,282.455,104.89z M279.411,159.701
	c0-12.933-10.478-23.411-23.411-23.411c-12.933,0-23.411,10.478-23.411,23.411c0,12.933,10.478,23.411,23.411,23.411
	C268.933,183.112,279.411,172.633,279.411,159.701z"/>
<g>
	<path style="fill:#FF8CC0;" d="M282.455,214.511v90.694h-52.911v-90.694c8,3.859,16.98,6.03,26.455,6.03
		S274.455,218.37,282.455,214.511z"/>
	<path style="fill:#FF8CC0;" d="M282.455,14.207v90.683c-8-3.859-16.98-6.03-26.455-6.03s-18.455,2.171-26.455,6.03V14.207H282.455z
		"/>
</g>
<path style="fill:#F1DCBD;" d="M282.455,11.8v2.407h-52.911v90.683c-20.343,9.841-34.385,30.68-34.385,54.811
	s14.042,44.97,34.385,54.811v90.694v2.395H64.086V41.595c0-16.461,13.334-29.795,29.795-29.795H282.455z M164.137,242.194
	c0-15.942-12.921-28.863-28.863-28.863c-15.93,0-28.851,12.921-28.851,28.863s12.921,28.863,28.851,28.863
	C151.216,271.057,164.137,258.136,164.137,242.194z"/>
<circle style="fill:#94D8F2;" cx="256" cy="159.701" r="23.411"/>
<path style="fill:#FF6464;" d="M135.275,213.331c15.942,0,28.863,12.921,28.863,28.863s-12.921,28.863-28.863,28.863
	c-15.93,0-28.851-12.921-28.851-28.863S119.345,213.331,135.275,213.331z"/>
<path d="M30.621,324.712v99.98c0,15.942,12.969,28.91,28.91,28.91h28.91V500.2c0,6.516,5.283,11.8,11.8,11.8h311.519
	c6.516,0,11.8-5.284,11.8-11.8v-46.598h28.91c15.942,0,28.91-12.968,28.91-28.91v-99.98c0-13.44-9.219-24.767-21.665-27.991V41.595
	C459.714,18.659,441.054,0,418.12,0H93.88C70.945,0,52.286,18.659,52.286,41.595v255.127
	C39.84,299.945,30.621,311.272,30.621,324.712z M452.469,430.002h-28.91V405.01c0-6.516-5.284-11.8-11.8-11.8h-27.435
	c-6.516,0-11.8,5.284-11.8,11.8c0,6.516,5.284,11.8,11.8,11.8h15.635v71.59H112.041v-71.59h200.08c6.516,0,11.8-5.284,11.8-11.8
	c0-6.516-5.284-11.8-11.8-11.8h-211.88c-6.517,0-11.8,5.284-11.8,11.8v24.992h-28.91c-2.928,0-5.31-2.382-5.31-5.31v-56.227h403.558
	v56.227C457.779,427.621,455.398,430.002,452.469,430.002z M59.531,319.402h392.938c2.928,0,5.31,2.382,5.31,5.31v20.153H54.221
	v-20.153C54.221,321.784,56.603,319.402,59.531,319.402z M270.656,88.56c-4.784-0.979-9.674-1.499-14.656-1.499
	c-4.982,0-9.872,0.519-14.656,1.5V26.007h29.311V88.56z M234.672,115.518c6.684-3.224,13.859-4.858,21.328-4.858
	c7.465,0,14.637,1.633,21.317,4.852c16.841,8.147,27.723,25.493,27.723,44.187c0,18.697-10.882,36.042-27.711,44.183
	c-6.684,3.223-13.859,4.858-21.328,4.858c-7.471,0-14.646-1.634-21.317-4.852c-16.841-8.147-27.724-25.493-27.724-44.188
	C206.959,141.005,217.841,123.66,234.672,115.518z M241.344,230.843c4.783,0.979,9.674,1.499,14.656,1.499
	c4.982,0,9.872-0.519,14.656-1.5v62.565h-29.311V230.843z M436.115,41.595v254.208H294.255V221.46
	c21.104-13.14,34.385-36.624,34.385-61.759s-13.281-48.618-34.385-61.757V23.6H418.12C428.042,23.6,436.115,31.672,436.115,41.595z
	 M93.88,23.6h123.864v74.342c-21.104,13.14-34.385,36.624-34.385,61.757c0,25.133,13.277,48.613,34.385,61.759v74.343H75.885V41.595
	C75.885,31.672,83.958,23.6,93.88,23.6z"/>
<path d="M256,194.913c19.416,0,35.211-15.797,35.211-35.212c0-6.516-5.284-11.8-11.8-11.8s-11.8,5.284-11.8,11.8
	c0,6.403-5.208,11.612-11.611,11.612c-6.403,0-11.611-5.21-11.611-11.612s5.208-11.611,11.611-11.611c6.516,0,11.8-5.284,11.8-11.8
	c0-6.516-5.284-11.8-11.8-11.8c-19.416,0-35.211,15.795-35.211,35.211S236.586,194.913,256,194.913z"/>
<path d="M343.545,119.77h62.527c6.516,0,11.8-5.284,11.8-11.8V62.304c0-6.516-5.284-11.8-11.8-11.8h-62.527
	c-6.516,0-11.8,5.284-11.8,11.8v45.666C331.745,114.486,337.028,119.77,343.545,119.77z M355.345,74.104h38.927V96.17h-38.927
	V74.104z"/>
<path d="M135.275,282.857c22.421,0,40.663-18.242,40.663-40.663s-18.24-40.663-40.663-40.663c-22.415,0-40.651,18.242-40.651,40.663
	S112.861,282.857,135.275,282.857z M135.275,225.131c9.408,0,17.063,7.653,17.063,17.063s-7.655,17.063-17.063,17.063
	c-9.402,0-17.051-7.653-17.051-17.063S125.872,225.131,135.275,225.131z"/>
<path d="M351.187,393.21h-4.721c-6.516,0-11.8,5.284-11.8,11.8c0,6.516,5.284,11.8,11.8,11.8h4.721c6.516,0,11.8-5.284,11.8-11.8
	C362.987,398.494,357.704,393.21,351.187,393.21z"/>
<g>
</g>
<g>
</g>
<g>
</g>
<g>
</g>
<g>
</g>
<g>
</g>
<g>
</g>
<g>
</g>
<g>
</g>
<g>
</g>
<g>
</g>
<g>
</g>
<g>
</g>
<g>
</g>
<g>
</g>
</svg>
